<svg width="24" height="24" viewBox="0 0 24 24" fill="none" xmlns="http://www.w3.org/2000/svg">
<g clip-path="url(#clip0_890_25)">
<mask id="mask0_890_25" style="mask-type:luminance" maskUnits="userSpaceOnUse" x="0" y="0" width="24" height="24">
<path d="M24 0H0V24H24V0Z" fill="white"/>
</mask>
<g mask="url(#mask0_890_25)">
<path d="M12 24C18.6274 24 24 18.6274 24 12C24 5.37258 18.6274 0 12 0C5.37258 0 0 5.37258 0 12C0 18.6274 5.37258 24 12 24Z" fill="#EBF0F7"/>
</g>
<g clip-path="url(#clip1_890_25)">
<path d="M12 5.21875C8.26211 5.21875 5.21875 8.25937 5.21875 12C5.21875 15.7379 8.26211 18.7812 12 18.7812C15.7379 18.7812 18.7812 15.7379 18.7812 12C18.7812 8.25937 15.7379 5.21875 12 5.21875ZM5.90234 12C5.90234 11.1168 6.09102 10.2773 6.43008 9.51992L9.33945 17.4879C7.30508 16.498 5.90234 14.4117 5.90234 12ZM12 18.0977C11.4012 18.0977 10.8242 18.0102 10.2773 17.8488L12.1066 12.5332L13.9797 17.6684C13.9934 17.6984 14.007 17.7258 14.0234 17.7531C13.3918 17.9746 12.7109 18.0977 12 18.0977ZM12.8395 9.14258C13.2059 9.12344 13.5367 9.08516 13.5367 9.08516C13.8648 9.04687 13.8266 8.56289 13.4984 8.58203C13.4984 8.58203 12.5113 8.65859 11.8742 8.65859C11.2754 8.65859 10.2691 8.58203 10.2691 8.58203C9.94102 8.56289 9.90273 9.06602 10.2309 9.08516C10.2309 9.08516 10.5426 9.12344 10.8707 9.14258L11.8195 11.7457L10.4852 15.7461L8.26484 9.14258C8.63125 9.12344 8.96211 9.08516 8.96211 9.08516C9.29023 9.04687 9.25195 8.56289 8.92383 8.58203C8.92383 8.58203 7.93672 8.65859 7.29961 8.65859C7.18477 8.65859 7.05078 8.65586 6.90586 8.65039C7.99687 6.99609 9.86992 5.90234 12 5.90234C13.5859 5.90234 15.0324 6.50938 16.118 7.50195C16.0906 7.49922 16.066 7.49648 16.0387 7.49648C15.4398 7.49648 15.016 8.01875 15.016 8.5793C15.016 9.08242 15.3059 9.50625 15.6148 10.0094C15.8473 10.4141 16.118 10.9363 16.118 11.691C16.118 12.2133 15.9184 12.8176 15.6531 13.6625L15.0461 15.6941L12.8395 9.14258ZM15.0652 17.2691L16.9273 11.8852C17.2746 11.0156 17.3922 10.3211 17.3922 9.70039C17.3922 9.47617 17.3785 9.26836 17.3512 9.07422C17.827 9.94375 18.0977 10.9391 18.0977 12C18.0977 14.2504 16.8781 16.2137 15.0652 17.2691Z" fill="#005FFE"/>
</g>
</g>
<defs>
<clipPath id="clip0_890_25">
<rect width="24" height="24" fill="white"/>
</clipPath>
<clipPath id="clip1_890_25">
<rect width="14" height="14" fill="white" transform="translate(5 5)"/>
</clipPath>
</defs>
</svg>
