<?xml version="1.0" encoding="utf-8"?>
<!-- Generator: Adobe Illustrator 24.0.1, SVG Export Plug-In . SVG Version: 6.00 Build 0)  -->
<svg version="1.1" xmlns="http://www.w3.org/2000/svg" xmlns:xlink="http://www.w3.org/1999/xlink" x="0px" y="0px"
	 viewBox="0 0 1366 768" style="enable-background:new 0 0 1366 768;" xml:space="preserve">
<style type="text/css">
	.st0{fill:#005FFE;}
	.st1{fill:#222222;}
	.st2{fill:url(#SVGID_1_);}
	.st3{fill:url(#SVGID_2_);}
</style>
<g id="Layer_1">
</g>
<g id="Layer_2">
	<g>
		<path class="st0" d="M534.2,364.9v73.8h-32.9v-71c0-8.8-5.3-11.4-11.4-11.4c-6.6,0-12.7,3.3-12.7,14v68.3h-32.9v-71
			c0-8.8-5.3-11.4-11.4-11.4c-6.6,0-12.7,3.3-12.7,14v68.3h-32.9V329.2h32.9v9.9c5-7.4,13.8-12.9,25.2-12.9c11,0,19.9,4.4,25.4,13.1
			c7-7.7,16.2-13.1,29.4-13.1C521.7,326.2,534.2,339.8,534.2,364.9z"/>
		<path class="st0" d="M556,285.4h32.9v30.7H556V285.4z M556,329.2h32.9v109.5H556V329.2z"/>
		<path class="st0" d="M708.1,369.3v69.4h-32.9v-66.6c0-11-6.4-15.8-14.7-15.8c-9.9,0-16,5.5-16,18.4v64h-32.9V329.2h32.9v10.1
			c5-7.7,14.5-13.1,28.5-13.1C693.5,326.2,708.1,341.9,708.1,369.3z"/>
		<path class="st0" d="M841.8,285.4v153.3H809v-10.3c-7.2,8.3-18,13.4-32.6,13.4c-28.7,0-52.3-25.2-52.3-57.8
			c0-32.6,23.7-57.8,52.3-57.8c14.7,0,25.4,5,32.6,13.4v-54.1H841.8z M809,384c0-16.4-11-26.7-26.1-26.7s-26.1,10.3-26.1,26.7
			s10.9,26.7,26.1,26.7S809,400.4,809,384z"/>
		<path class="st1" d="M947,407.9c0,21.7-18.8,33.7-42.9,33.7c-24.3,0-43.1-12.7-43.1-36.8h23.2c0,10.9,8.3,15.6,19.9,15.6
			c11.4,0,19.3-4.2,19.3-12.5c0-21.7-60.7-6.1-60.7-48c0-21.2,18.8-33.5,41.4-33.5c21.9,0,40.7,12.5,40.7,36.6h-23.2
			c0-10.7-8.3-15.3-17.5-15.3c-9.9,0-17.7,3.9-17.7,12.3C886.3,382,947,366,947,407.9z"/>
		<path class="st1" d="M1084.4,384c0,32.4-24.8,57.6-54.5,57.6c-17.1,0-30-7-38.3-18.6v59.6h-23.7V329.2h23.7v15.6
			c8.3-11.4,21.2-18.4,38.3-18.4C1059.6,326.4,1084.4,351.4,1084.4,384z M1060.7,384c0-20.4-14.9-35-34.6-35
			c-18.8,0-33.3,13.4-34.6,32.2v5.7c1.3,18.8,15.8,32.2,34.6,32.2C1045.8,419,1060.7,404.4,1060.7,384z"/>
		<path class="st1" d="M1193.4,329.2v109.5h-23.7v-12.5c-7,10.7-17.7,15.3-31.1,15.3c-20.4,0-36.1-15.6-36.1-41.8v-70.5h23.7v69
			c0,14.2,8.5,21.2,19.9,21.2c12.5,0,23.7-7.4,23.7-27.4v-62.9H1193.4z"/>
		<path class="st1" d="M1310,368.2v70.5h-23.7v-69.2c0-14-8.5-21-20.2-21c-12.3,0-23.4,7.2-23.4,27.4v62.9h-23.7V329.2h23.7v12.5
			c7-10.7,17.5-15.3,31.1-15.3C1294.2,326.4,1310,341.9,1310,368.2z"/>
	</g>
	<g>
		<linearGradient id="SVGID_1_" gradientUnits="userSpaceOnUse" x1="112.592" y1="469.196" x2="291.3935" y2="259.3628">
			<stop  offset="0" style="stop-color:#2127BD"/>
			<stop  offset="1" style="stop-color:#005FFE"/>
		</linearGradient>
		<path class="st2" d="M336.3,357.2l-16.7-10.7c-2-10-5.1-19.5-9.3-28.5l7.2-18.5c-4.6-7.8-10-15.2-16-21.9l-19.8,1.2
			c-7.3-6.8-15.5-12.7-24.3-17.6l-5-19.2c-8.2-3.6-16.8-6.4-25.8-8.4l-15.3,12.6c-4.9-0.6-9.9-0.9-15-0.9s-10.1,0.3-15,0.9
			l-15.3-12.6c-8.9,2-17.6,4.8-25.8,8.4l-5,19.2c-8.8,4.9-16.9,10.8-24.3,17.6l-19.8-1.2c-6,6.8-11.3,14.1-16,21.9l7.2,18.5
			c-4.2,9-7.3,18.5-9.3,28.5l-16.7,10.7c-0.4,4.5-0.7,9-0.7,13.5s0.2,9.1,0.7,13.5L73.4,395c2,10,5.1,19.6,9.3,28.5L75.4,442
			c4.6,7.8,10,15.2,16,21.9l19.8-1.2c7.3,6.8,15.5,12.7,24.3,17.6l5,19.2c6.7,2.9,13.7,5.3,20.9,7.2v-0.8c-4.5-2.6-7.5-7.3-7.5-12.8
			c0-4.1,1.7-7.8,4.4-10.5c-2.7-2.7-4.4-6.4-4.4-10.5v0c0-4,1.6-7.7,4.2-10.3c-3.7-14-10.4-27-20.2-37.8
			c-13.3-14.6-21.2-34.2-20.5-55.6c1.2-40.8,34.6-74.7,75.4-76.6c45.5-2.1,83,34.1,83,79.1c0,20.5-7.8,39.1-20.5,53.1
			c-9.8,10.8-16.6,23.8-20.3,37.8c2.6,2.7,4.3,6.3,4.3,10.4v0c0,4.1-1.7,7.8-4.4,10.5c2.7,2.7,4.4,6.4,4.4,10.5
			c0,5.5-3,10.3-7.5,12.8v0.8c7.2-1.9,14.2-4.2,20.9-7.2l5-19.2c8.8-4.9,16.9-10.8,24.3-17.6l19.8,1.2c6-6.8,11.3-14.1,16-21.9
			l-7.2-18.5c4.2-9,7.3-18.5,9.3-28.5l16.7-10.7c0.4-4.5,0.7-9,0.7-13.5S336.7,361.7,336.3,357.2z"/>
		<linearGradient id="SVGID_2_" gradientUnits="userSpaceOnUse" x1="182.4512" y1="528.7239" x2="361.2527" y2="318.8907">
			<stop  offset="0" style="stop-color:#2127BD"/>
			<stop  offset="1" style="stop-color:#005FFE"/>
		</linearGradient>
		<path class="st3" d="M170.1,506.7c0,0.4-0.1,0.8-0.1,1.2c0,14.6,11.9,26.5,26.5,26.5s26.5-11.9,26.5-26.5c0-0.4-0.1-0.8-0.1-1.2
			H170.1z"/>
	</g>
</g>
</svg>
